<svg width="20" height="20" viewBox="0 0 20 20" fill="none" xmlns="http://www.w3.org/2000/svg">
<path fill-rule="evenodd" clip-rule="evenodd" d="M4.138 8.50993C4.138 6.14304 6.05674 4.2243 8.42363 4.2243C10.7905 4.2243 12.7093 6.14304 12.7093 8.50993C12.7093 10.8768 10.7905 12.7956 8.42363 12.7956C6.05674 12.7956 4.138 10.8768 4.138 8.50993ZM8.42363 2.9743C5.36639 2.9743 2.888 5.45269 2.888 8.50993C2.888 11.5672 5.36639 14.0456 8.42363 14.0456C9.72707 14.0456 10.9253 13.5951 11.8711 12.8413L15.6981 16.6683C15.9422 16.9124 16.3379 16.9124 16.582 16.6683C16.8261 16.4242 16.8261 16.0285 16.582 15.7844L12.755 11.9574C13.5088 11.0116 13.9593 9.81337 13.9593 8.50993C13.9593 5.45269 11.4809 2.9743 8.42363 2.9743Z" fill="#282828"/>
</svg>
