<svg width="20" height="20" viewBox="0 0 20 20" fill="none" xmlns="http://www.w3.org/2000/svg">
<path fill-rule="evenodd" clip-rule="evenodd" d="M4.18494 4.12371C4.18494 4.00865 4.27821 3.91537 4.39327 3.91537H7.7266C7.84166 3.91537 7.93494 4.00865 7.93494 4.12371V7.45704C7.93494 7.5721 7.84166 7.66537 7.7266 7.66537H4.39327C4.27821 7.66537 4.18494 7.5721 4.18494 7.45704V4.12371ZM4.39327 2.66537C3.58785 2.66537 2.93494 3.31829 2.93494 4.12371V7.45704C2.93494 8.26246 3.58785 8.91537 4.39327 8.91537H7.7266C8.53202 8.91537 9.18494 8.26246 9.18494 7.45704V4.12371C9.18494 3.31829 8.53202 2.66537 7.7266 2.66537H4.39327ZM12.5183 4.12371C12.5183 4.00865 12.6115 3.91537 12.7266 3.91537H16.0599C16.175 3.91537 16.2683 4.00865 16.2683 4.12371V7.45704C16.2683 7.5721 16.175 7.66537 16.0599 7.66537H12.7266C12.6115 7.66537 12.5183 7.5721 12.5183 7.45704V4.12371ZM12.7266 2.66537C11.9212 2.66537 11.2683 3.31829 11.2683 4.12371V7.45704C11.2683 8.26246 11.9212 8.91537 12.7266 8.91537H16.0599C16.8654 8.91537 17.5183 8.26246 17.5183 7.45704V4.12371C17.5183 3.31829 16.8654 2.66537 16.0599 2.66537H12.7266ZM4.39327 12.2487C4.27821 12.2487 4.18494 12.342 4.18494 12.457V15.7904C4.18494 15.9054 4.27821 15.9987 4.39327 15.9987H7.7266C7.84166 15.9987 7.93494 15.9054 7.93494 15.7904V12.457C7.93494 12.342 7.84166 12.2487 7.7266 12.2487H4.39327ZM2.93494 12.457C2.93494 11.6516 3.58785 10.9987 4.39327 10.9987H7.7266C8.53202 10.9987 9.18494 11.6516 9.18494 12.457V15.7904C9.18494 16.5958 8.53202 17.2487 7.7266 17.2487H4.39327C3.58785 17.2487 2.93494 16.5958 2.93494 15.7904V12.457ZM12.5183 12.457C12.5183 12.342 12.6115 12.2487 12.7266 12.2487H16.0599C16.175 12.2487 16.2683 12.342 16.2683 12.457V15.7904C16.2683 15.9054 16.175 15.9987 16.0599 15.9987H12.7266C12.6115 15.9987 12.5183 15.9054 12.5183 15.7904V12.457ZM12.7266 10.9987C11.9212 10.9987 11.2683 11.6516 11.2683 12.457V15.7904C11.2683 16.5958 11.9212 17.2487 12.7266 17.2487H16.0599C16.8654 17.2487 17.5183 16.5958 17.5183 15.7904V12.457C17.5183 11.6516 16.8654 10.9987 16.0599 10.9987H12.7266Z" fill="#5F6980"/>
</svg>
