<svg width="18" height="16" viewBox="0 0 18 16" fill="none" xmlns="http://www.w3.org/2000/svg">
<path fill-rule="evenodd" clip-rule="evenodd" d="M3.14067 0.665367C2.53288 0.665367 1.94998 0.90681 1.52021 1.33658C1.09044 1.76635 0.848999 2.34925 0.848999 2.95703V12.957C0.848999 13.5648 1.09044 14.1477 1.52021 14.5775C1.94998 15.0073 2.53288 15.2487 3.14067 15.2487H8.974C9.58179 15.2487 10.1647 15.0073 10.5945 14.5775C11.0242 14.1477 11.2657 13.5648 11.2657 12.957V11.2904C11.2657 10.9452 10.9858 10.6654 10.6407 10.6654C10.2955 10.6654 10.0157 10.9452 10.0157 11.2904V12.957C10.0157 13.2333 9.90592 13.4983 9.71057 13.6936C9.51522 13.889 9.25027 13.9987 8.974 13.9987H3.14067C2.8644 13.9987 2.59945 13.889 2.4041 13.6936C2.20875 13.4983 2.099 13.2333 2.099 12.957V2.95703C2.099 2.68077 2.20875 2.41581 2.4041 2.22046C2.59945 2.02511 2.8644 1.91537 3.14067 1.91537H8.974C9.25027 1.91537 9.51522 2.02511 9.71057 2.22046C9.90592 2.41581 10.0157 2.68077 10.0157 2.95703V4.6237C10.0157 4.96888 10.2955 5.2487 10.6407 5.2487C10.9858 5.2487 11.2657 4.96888 11.2657 4.6237V2.95703C11.2657 2.34925 11.0242 1.76635 10.5945 1.33658C10.1647 0.90681 9.58179 0.665367 8.974 0.665367H3.14067ZM14.4159 5.01509C14.1719 4.77101 13.7761 4.77101 13.5321 5.01509C13.288 5.25917 13.288 5.6549 13.5321 5.89898L14.9651 7.33203H4.80733C4.46215 7.33203 4.18233 7.61186 4.18233 7.95703C4.18233 8.30221 4.46215 8.58203 4.80733 8.58203H14.9651L13.5321 10.0151C13.288 10.2592 13.288 10.6549 13.5321 10.899C13.7761 11.1431 14.1719 11.1431 14.4159 10.899L16.9127 8.40225C16.9247 8.39041 16.9362 8.37807 16.9473 8.36524C17.03 8.26953 17.0789 8.15468 17.094 8.03635C17.0991 7.99647 17.1003 7.9564 17.0977 7.91668C17.0883 7.77043 17.0277 7.62686 16.9159 7.51509L14.4159 5.01509Z" fill="#5F6980"/>
</svg>
