<svg width="18" height="14" viewBox="0 0 18 14" fill="none" xmlns="http://www.w3.org/2000/svg">
<path fill-rule="evenodd" clip-rule="evenodd" d="M8.70964 3.45801C8.70964 2.53754 9.45583 1.79134 10.3763 1.79134C11.2968 1.79134 12.043 2.53754 12.043 3.45801C12.043 4.37848 11.2968 5.12468 10.3763 5.12468C9.45583 5.12468 8.70964 4.37848 8.70964 3.45801ZM7.52676 4.08301H1.41797C1.07279 4.08301 0.792969 3.80319 0.792969 3.45801C0.792969 3.11283 1.07279 2.83301 1.41797 2.83301H7.52676C7.81287 1.52252 8.98 0.541344 10.3763 0.541344C11.7726 0.541344 12.9397 1.52252 13.2258 2.83301H16.418C16.7631 2.83301 17.043 3.11283 17.043 3.45801C17.043 3.80319 16.7631 4.08301 16.418 4.08301H13.2258C12.9397 5.3935 11.7726 6.37468 10.3763 6.37468C8.98 6.37468 7.81287 5.3935 7.52676 4.08301ZM3.70964 10.1247C3.70964 9.2042 4.45583 8.45801 5.3763 8.45801C6.29678 8.45801 7.04297 9.2042 7.04297 10.1247C7.04297 11.0452 6.29678 11.7913 5.3763 11.7913C4.45583 11.7913 3.70964 11.0452 3.70964 10.1247ZM5.3763 13.0413C3.98 13.0413 2.81287 12.0602 2.52676 10.7497H1.41797C1.07279 10.7497 0.792969 10.4699 0.792969 10.1247C0.792969 9.7795 1.07279 9.49968 1.41797 9.49968H2.52676C2.81287 8.18918 3.98 7.20801 5.3763 7.20801C6.7726 7.20801 7.93973 8.18918 8.22585 9.49968H16.418C16.7631 9.49968 17.043 9.7795 17.043 10.1247C17.043 10.4699 16.7631 10.7497 16.418 10.7497H8.22585C7.93973 12.0602 6.7726 13.0413 5.3763 13.0413Z" fill="#5F6980"/>
</svg>
