<svg width="17" height="16" viewBox="0 0 17 16" fill="none" xmlns="http://www.w3.org/2000/svg">
<path fill-rule="evenodd" clip-rule="evenodd" d="M8.91797 0.0310003C8.80548 0.0310003 8.69353 0.0333311 8.58217 0.0379472C8.51116 0.0255004 8.43872 0.0297949 8.37057 0.0495067C4.22474 0.330765 0.948975 3.78283 0.948975 8C0.948975 12.2172 4.22474 15.6692 8.37057 15.9505C8.43872 15.9702 8.51116 15.9745 8.58217 15.962C8.69353 15.9667 8.80548 15.969 8.91797 15.969C9.03039 15.969 9.14226 15.9667 9.25355 15.9621C9.32451 15.9745 9.3969 15.9702 9.46501 15.9505C13.611 15.6694 16.887 12.2173 16.887 8C16.887 3.78271 13.611 0.330565 9.46501 0.0494823C9.39691 0.0297962 9.32451 0.0255077 9.25354 0.037938C9.14226 0.033328 9.03039 0.0310003 8.91797 0.0310003ZM9.07262 0.97066C9.0212 0.96955 8.96965 0.968992 8.91797 0.968992C8.8662 0.968992 8.81455 0.969552 8.76304 0.970666C7.99862 2.24888 7.45997 3.62086 7.14708 5.03122H10.6886C10.3757 3.62086 9.83704 2.24887 9.07262 0.97066ZM10.8626 5.96921H6.97303C6.77145 7.31543 6.77147 8.68501 6.9731 10.0312H10.8626C11.0642 8.68501 11.0642 7.31543 10.8626 5.96921ZM11.8104 10.0312C11.9989 8.68403 11.9989 7.3164 11.8104 5.96921H15.6512C15.8449 6.61216 15.949 7.29392 15.949 8C15.949 8.70623 15.8449 9.38814 15.6511 10.0312H11.8104ZM10.6885 10.9692H7.14718C7.46008 12.3794 7.9987 13.7512 8.76304 15.0293C8.81455 15.0304 8.8662 15.031 8.91797 15.031C8.96965 15.031 9.0212 15.0304 9.07262 15.0293C9.83696 13.7513 10.3756 12.3794 10.6885 10.9692ZM10.2174 14.9112C10.8896 13.657 11.3664 12.3286 11.6478 10.9692H15.2931C14.3499 12.991 12.4732 14.4897 10.2174 14.9112ZM11.6479 5.03122C11.3665 3.67163 10.8896 2.34311 10.2174 1.08882C12.4734 1.51035 14.3501 3.00926 15.2933 5.03122H11.6479ZM7.61826 14.9111C6.94608 13.657 6.46928 12.3286 6.18787 10.9692H2.54283C3.48602 12.9909 5.36254 14.4895 7.61826 14.9111ZM6.02531 10.0312C5.83674 8.68403 5.83672 7.3164 6.02525 5.96921H2.18469C1.99104 6.61216 1.88697 7.29392 1.88697 8C1.88697 8.70623 1.99109 9.38814 2.18483 10.0312H6.02531ZM6.18778 5.03122C6.46918 3.67165 6.94601 2.34315 7.61826 1.08888C5.36237 1.51049 3.48575 3.00935 2.54263 5.03122H6.18778Z" fill="#5F6980"/>
</svg>
