<svg width="20" height="20" viewBox="0 0 20 20" fill="none" xmlns="http://www.w3.org/2000/svg">
<path fill-rule="evenodd" clip-rule="evenodd" d="M6.94535 6.66701C6.94535 5.17124 8.15792 3.95868 9.65369 3.95868C11.1495 3.95868 12.362 5.17124 12.362 6.66701C12.362 8.16278 11.1495 9.37535 9.65369 9.37535C8.15792 9.37535 6.94535 8.16278 6.94535 6.66701ZM9.65369 2.70868C7.46756 2.70868 5.69535 4.48089 5.69535 6.66701C5.69535 8.85314 7.46756 10.6253 9.65369 10.6253C11.8398 10.6253 13.612 8.85314 13.612 6.66701C13.612 4.48089 11.8398 2.70868 9.65369 2.70868ZM6.07194 13.8323C6.57985 13.3244 7.26873 13.0391 7.98702 13.0391H11.3204C12.0386 13.0391 12.7275 13.3244 13.2354 13.8323C13.7433 14.3402 14.0287 15.0291 14.0287 15.7474V17.4141C14.0287 17.7593 14.3085 18.0391 14.6537 18.0391C14.9989 18.0391 15.2787 17.7593 15.2787 17.4141V15.7474C15.2787 14.6976 14.8616 13.6908 14.1193 12.9485C13.377 12.2061 12.3702 11.7891 11.3204 11.7891H7.98702C6.9372 11.7891 5.93039 12.2061 5.18806 12.9485C4.44572 13.6908 4.02869 14.6976 4.02869 15.7474V17.4141C4.02869 17.7593 4.30851 18.0391 4.65369 18.0391C4.99886 18.0391 5.27869 17.7593 5.27869 17.4141V15.7474C5.27869 15.0291 5.56403 14.3402 6.07194 13.8323Z" fill="#5F6980"/>
</svg>
