<svg width="4" height="16" viewBox="0 0 4 16" fill="none" xmlns="http://www.w3.org/2000/svg">
<path d="M1.16766 7.99974C1.16766 8.22075 1.25546 8.43271 1.41174 8.58899C1.56802 8.74527 1.77998 8.83307 2.001 8.83307C2.22201 8.83307 2.43397 8.74527 2.59025 8.58899C2.74653 8.43271 2.83433 8.22075 2.83433 7.99974C2.83433 7.77872 2.74653 7.56676 2.59025 7.41048C2.43397 7.2542 2.22201 7.1664 2.001 7.1664C1.77998 7.1664 1.56802 7.2542 1.41174 7.41048C1.25546 7.56676 1.16766 7.77872 1.16766 7.99974ZM1.16766 13.8331C1.16766 14.0541 1.25546 14.266 1.41174 14.4223C1.56802 14.5786 1.77998 14.6664 2.001 14.6664C2.22201 14.6664 2.43397 14.5786 2.59025 14.4223C2.74653 14.266 2.83433 14.0541 2.83433 13.8331C2.83433 13.6121 2.74653 13.4001 2.59025 13.2438C2.43397 13.0875 2.22201 12.9997 2.001 12.9997C1.77998 12.9997 1.56802 13.0875 1.41174 13.2438C1.25546 13.4001 1.16766 13.6121 1.16766 13.8331ZM1.16766 2.1664C1.16766 2.38742 1.25546 2.59938 1.41174 2.75566C1.56802 2.91194 1.77998 2.99974 2.001 2.99974C2.22201 2.99974 2.43397 2.91194 2.59025 2.75566C2.74653 2.59938 2.83433 2.38742 2.83433 2.1664C2.83433 1.94539 2.74653 1.73343 2.59025 1.57715C2.43397 1.42087 2.22201 1.33307 2.001 1.33307C1.77998 1.33307 1.56802 1.42087 1.41174 1.57715C1.25546 1.73343 1.16766 1.94539 1.16766 2.1664Z" stroke="#9D9FA2" stroke-width="1.15385" stroke-linecap="round" stroke-linejoin="round"/>
</svg>
